{
  "title": "Teen Wolf Season 5 Complete 720p ~{KiNg}",
  "uid": 14806036,
  "size": 7219220737,
  "categoryP": "video",
  "categoryS": "hd___tv_shows",
  "magnet": "?xt=urn:btih:af0e5fd8f68cebb199e37777d863c39ef53add9d&amp;dn=Teen+Wolf+Season+5+Complete+720p+%7E%7BKiNg%7D&amp;tr=udp%3A%2F%2Ftracker.leechers-paradise.org%3A6969&amp;tr=udp%3A%2F%2Fzer0day.ch%3A1337&amp;tr=udp%3A%2F%2Fopen.demonii.com%3A1337&amp;tr=udp%3A%2F%2Ftracker.coppersurfer.tk%3A6969&amp;tr=udp%3A%2F%2Fexodus.desync.com%3A6969",
  "seeders": 81,
  "leechers": 40,
  "uploader": "Uplaoderking",
  "files": 20,
  "time": 1465165266,
  "description": "General\r\nFormat : Matroska\r\nFormat version : Version 4 / Version 2\r\nFile size : 344 MiB\r\nDuration : 2h 2mn\r\nOverall bit rate : 394 Kbps\r\n\r\nVideo\r\nID : 1\r\nFormat : AVC\r\nFormat/Info : Advanced Video Codec\r\nFormat profile :   \r\nFormat settings, CABAC : Yes\r\nFormat settings, ReFrames : 4 frames\r\nCodec ID : V_MPEG4/ISO/AVC\r\nDuration : 41mn 1s\r\nBit rate : 839 Kbps\r\nWidth : 1 280 pixels\r\nHeight : 720 pixels\r\nDisplay aspect ratio : 16:9\r\nFrame rate mode : Constant\r\nFrame rate : 23.976 (24000/1001) fps\r\nColor space : YUV\r\nChroma subsampling : 4:2:0\r\nBit depth : 8 bits\r\nScan type : Progressive\r\nBits/(Pixel*Frame) : 0.038\r\nStream size : 246 MiB (72%)\r\n\r\nAudio\r\nID : 2\r\nFormat : AAC\r\nFormat/Info : Advanced Audio Codec\r\nFormat profile : LC\r\nCodec ID : A_AAC\r\nDuration : 2h 2mn\r\nBit rate : 111 Kbps\r\nChannel(s) : 2 channels\r\nChannel positions : Front: L R\r\nSampling rate : 48.0 KHz\r\nFrame rate : 46.875 fps (1024 spf)\r\nCompression mode : Lossy\r\nDelay relative to video : 9ms\r\nStream size : 96.7 MiB (28%)\r\nLanguage : English\r\nDefault : No\r\nForced : No",
  "parsed": {
    "xt": "urn:btih:af0e5fd8f68cebb199e37777d863c39ef53add9d",
    "dn": "Teen Wolf Season 5 Complete 720p ~{KiNg}",
    "tr": [
      "udp://exodus.desync.com:6969",
      "udp://open.demonii.com:1337",
      "udp://tracker.coppersurfer.tk:6969",
      "udp://tracker.leechers-paradise.org:6969",
      "udp://zer0day.ch:1337"
    ],
    "infoHash": "af0e5fd8f68cebb199e37777d863c39ef53add9d",
    "infoHashBuffer": {
      "type": "Buffer",
      "data": [
        175,
        14,
        95,
        216,
        246,
        140,
        235,
        177,
        153,
        227,
        119,
        119,
        216,
        99,
        195,
        158,
        245,
        58,
        221,
        157
      ]
    },
    "name": "Teen Wolf Season 5 Complete 720p ~{KiNg}",
    "announce": [
      "udp://exodus.desync.com:6969",
      "udp://open.demonii.com:1337",
      "udp://tracker.coppersurfer.tk:6969",
      "udp://tracker.leechers-paradise.org:6969",
      "udp://zer0day.ch:1337"
    ],
    "urlList": []
  },
  "previous": 139,
  "peers": 100,
  "last_updated": "2016-12-27T10:15:19.466Z"
}